<svg xmlns="http://www.w3.org/2000/svg" viewBox="0 0 32 32" width="32" height="32">
  <path d="M8.5 2.5h10l6 6v18.5a2.5 2.5 0 0 1-2.5 2.5H8.5A2.5 2.5 0 0 1 6 27V5a2.5 2.5 0 0 1 2.5-2.5z" fill="none" stroke="#0f766e" stroke-width="2" stroke-linejoin="round"/>
  <path d="M18.5 2.5v4a2 2 0 0 0 2 2h4" fill="none" stroke="#0f766e" stroke-width="2" stroke-linejoin="round"/>
  <path d="M11.8 12v2.6a3.5 3.5 0 0 0 7 0V12" fill="none" stroke="#0f766e" stroke-width="1.9" stroke-linecap="round"/>
  <path d="M10.2 21.8h10.1M10.2 25.5h4" fill="none" stroke="#0f766e" stroke-width="1.9" stroke-linecap="round"/>
  <circle cx="17.5" cy="25.5" r="0.95" fill="#0f766e"/>
</svg>
